<svg xmlns="http://www.w3.org/2000/svg" xmlns:xlink="http://www.w3.org/1999/xlink" width="1900" zoomAndPan="magnify" viewBox="0 0 1425 857.999991" height="1144" preserveAspectRatio="xMidYMid meet" version="1.0"><defs><clipPath id="c0133875e3"><path d="M 0 240 L 1425 240 L 1425 858 L 0 858 Z M 0 240 " clip-rule="nonzero"/></clipPath><clipPath id="4d944a1519"><path d="M -627.683594 609.449219 L 1455.664062 102.035156 L 1629.949219 817.617188 L -453.398438 1325.03125 Z M -627.683594 609.449219 " clip-rule="nonzero"/></clipPath><clipPath id="f76d3d8875"><path d="M 1455.832031 101.992188 L -627.511719 609.410156 L -453.226562 1324.992188 L 1630.121094 817.574219 Z M 1455.832031 101.992188 " clip-rule="nonzero"/></clipPath></defs><g clip-path="url(#c0133875e3)"><g clip-path="url(#4d944a1519)"><g clip-path="url(#f76d3d8875)"><path fill="#f2f1eb" d="M 1489.664062 240.894531 L 1423.484375 271.238281 C 1357.359375 301.8125 1225 362.496094 1081.8125 378.730469 C 938.570312 394.738281 784.445312 366.0625 635.957031 360.539062 C 487.472656 355.011719 344.625 372.636719 208.542969 418.042969 C 72.460938 463.449219 -56.855469 536.636719 -182.789062 623.710938 C -308.722656 710.785156 -431.269531 811.753906 -492.546875 862.234375 L -553.820312 912.71875 L -453.457031 1324.792969 L -384.007812 1307.878906 C -314.554688 1290.960938 -175.65625 1257.132812 -36.753906 1223.300781 C 102.148438 1189.46875 241.050781 1155.640625 379.949219 1121.808594 C 518.851562 1087.980469 657.753906 1054.148438 796.652344 1020.316406 C 935.554688 986.488281 1074.457031 952.65625 1213.359375 918.828125 C 1352.257812 884.996094 1491.160156 851.164062 1560.609375 834.25 L 1630.0625 817.335938 Z M 1489.664062 240.894531 " fill-opacity="1" fill-rule="nonzero"/></g></g></g></svg>